# xmcd
#
# Track frame offsets:
#	150
#	13240
#	24730
#	36280
#	49187
#	63535
#	76835
#	87515
#	98580
#	113192
#	126115
#	140597
#	153187
#	166232
#	179495
#	191892
#	204740
#	217235
#	230230
#	240575
#	251047
#	264435
#
# Disc length: 3704 seconds
#
# Revision: 0
# Processed by: cddbd v1.5.2PL0 Copyright (c) Steve Scherf et al.
# Submitted via: EZCDAudioConverter 2.1.7.1
#
DISCID=450e7616
DTITLE=Various Artist - Obscure Blues Shouters Volume 5
DYEAR=1996
DGENRE=blues
TTITLE0=Rubberlegs Williams - Worried life blues
TTITLE1=Rubberlegs Williams - Empty bed blues pt. 1
TTITLE2=Rubberlegs Williams - Empty bed blues pt. 2
TTITLE3=Rubberlegs Williams - What's the matter now
TTITLE4=Rubberlegs Williams - I want every bit of it
TTITLE5=Rubberlegs Williams - That's the blues
TTITLE6=Rubberlegs Williams - G.I. blues
TTITLE7=Rubberlegs Williams - 4-F blues
TTITLE8=Rubberlegs Williams - Thast's the stuff you gotta watch
TTITLE9=Rubberlegs Williams - Pointless mama blues
TTITLE10=Rubberlegs Williams - Deep sea blues
TTITLE11=Rubberlegs Williams - Bring it on home
TTITLE12=Rubberlegs Williams - Going back to Washington
TTITLE13=Rubberlegs Williams - Did you ever get to thinking
TTITLE14=Rubberlegs Williams - Susie Bee blues
TTITLE15=Rubberlegs Williams - I ain't gonna marry
TTITLE16=Bubber Cyphers - Walkin' boogie
TTITLE17=Bubber Cyphers - I need you
TTITLE18=Walter "Sandman" Howard - Willow tree blues
TTITLE19=Walter "Sandman" Howard - Cuttin' out
TTITLE20=Sherman "Blues" Johnson - Blues jumped a rabbit
TTITLE21=Sherman "Blues" Johnson - Hello pretty baby
EXTD=
EXTT0=
EXTT1=
EXTT2=
EXTT3=
EXTT4=
EXTT5=
EXTT6=
EXTT7=
EXTT8=
EXTT9=
EXTT10=
EXTT11=
EXTT12=
EXTT13=
EXTT14=
EXTT15=
EXTT16=
EXTT17=
EXTT18=
EXTT19=
EXTT20=
EXTT21=
PLAYORDER=
